{"title":"I, Frankenstein (2014) 720p Blu-Ray x264 [Dual Audio] [Hindi 2.0","uid":11206612,"size":920230572,"categoryP":"video","categoryS":"hd___movies","magnet":"?xt=urn:btih:2fabb77a0f692a67fb69b901e4a5de49ebef8e48&amp;dn=I%2C+Frankenstein+%282014%29+720p+Blu-Ray+x264+%5BDual+Audio%5D+%5BHindi+2.0&amp;tr=udp%3A%2F%2Ftracker.openbittorrent.com%3A80&amp;tr=udp%3A%2F%2Fopen.demonii.com%3A1337&amp;tr=udp%3A%2F%2Ftracker.coppersurfer.tk%3A6969&amp;tr=udp%3A%2F%2Fexodus.desync.com%3A6969","seeders":1,"leechers":1,"uploader":"Mx-","files":4,"time":1413227356,"description":"[center][IMG]http://i.imgur.com/karXmyP.gif[/IMG]\n\n[b]SilverTorrent - Clean And Verified Torrents Download\n\n\n------------------------------------------------------[/b]\n\n[img]http://i.imgur.com/WDEj9QP.png[/img]\n[b][color=maroon]I, Frankenstein (2014) 720p Blu-Ray x264 [Dual Audio] [Hindi 2.0 - Eng 5.1] By Mx- (HDDR)[/color][/b]\n\n[b]Special Thanks To Bhatti87 For Hindi Audio\nMovie Contain Some Urdu Words[/b]\n\n[IMG]http://i.imgur.com/0u3esBm.png[/IMG]\n\n[IMG]http://i.imgur.com/IR1KRWH.png[/IMG]\n[b]\n[url]http://www.imdb.com/title/tt1418377/[/url]\nRatings: 5.2/10[/b]\n\n[IMG]http://i.imgur.com/akLXdDM.jpg[/IMG]\n[b]General[/b] \nComplete name : I, Frankenstein (2014) 720p Blu-Ray x264 [Dual Audio] [Hindi 2.0 - Eng 5.1] By Mx- (HDDR)\nFormat : Matroska \nFormat version : Version 4 / Version 2 \nFile size : 870 MiB \nDuration : 1h 32mn \nOverall bit rate : 1 317 Kbps \nMovie name : Mx- Present \n[/size]\n\n[img]http://imageshack.com/a/img69/7254/sxc8.jpg[/img]\n[b]Video[/b]\nID : 1 \nFormat : AVC \nFormat/Info : Advanced Video Codec \nFormat profile : &lt;a class=&quot;__cf_email__&quot; href=&quot;/cdn-cgi/l/email-protection&quot; data-cfemail=&quot;0b43626c634b473f253b&quot;&gt;[email&amp;#160;protected]&lt;/a&gt;&lt;script cf-hash='f9e31' type=&quot;text/javascript&quot;&gt;\n/* &lt;![CDATA[ */!function(){try{var t=&quot;currentScript&quot;in document?document.currentScript:function(){for(var t=document.getElementsByTagName(&quot;script&quot;),e=t.length;e--;)if(t[e].getAttribute(&quot;cf-hash&quot;))return t[e]}();if(t&amp;&amp;t.previousSibling){var e,r,n,i,c=t.previousSibling,a=c.getAttribute(&quot;data-cfemail&quot;);if(a){for(e=&quot;&quot;,r=parseInt(a.substr(0,2),16),n=2;a.length-n;n+=2)i=parseInt(a.substr(n,2),16)^r,e+=String.fromCharCode(i);e=document.createTextNode(e),c.parentNode.replaceChild(e,c)}}}catch(u){}}();/* ]]&gt; */&lt;/script&gt; \nFormat settings, CABAC : Yes \nFormat settings, ReFrames : 5 frames \nCodec ID : V_MPEG4/ISO/AVC \nDuration : 1h 32mn \nBit rate : 995 Kbps \nWidth : 1 280 pixels \nHeight : 536 pixels \nDisplay aspect ratio : 2.40:1 \nFrame rate mode : Constant \nFrame rate : 23.976 fps \nColor space : YUV \nChroma subsampling : 4:2:0 \nBit depth : 8 bits \nScan type : Progressive \nBits/(Pixel*Frame) : 0.060 \nStream size : 641 MiB (74%) \nTitle : Mx- Present \nWriting library : x264\nLanguage : English \nDefault : No \nForced : No\n\n[img]http://imageshack.com/a/img43/1041/xbcd.jpg[/img]\n[b]Audio #1[/b] \nID : 2 \nFormat : AC-3 \nFormat/Info : Audio Coding 3 \nMode extension : CM (complete main) \nFormat settings, Endianness : Big \nCodec ID : A_AC3 \nDuration : 1h 32mn \nBit rate mode : Constant \nBit rate : 128 Kbps \nChannel(s) : 2 channels \nChannel positions : Front: L R \nSampling rate : 48.0 KHz \nBit depth : 16 bits \nCompression mode : Lossy \nStream size : 84.6 MiB (10%) \nTitle : Mx- \nLanguage : Hindi \nDefault : Yes\nForced : No \n\n[img]http://imageshack.com/a/img43/1041/xbcd.jpg[/img]\n[b]Audio #1[/b] \nID : 3 \nFormat : AC-3 \nFormat/Info : Audio Coding 3 \nMode extension : CM (complete main) \nFormat settings, Endianness : Big \nCodec ID : A_AC3 \nDuration : 1h 32mn \nBit rate mode : Constant \nBit rate : 192 Kbps \nChannel(s) : 6 channels \nChannel positions : Front: L C R, Side: L R, LFE \nSampling rate : 48.0 KHz \nBit depth : 16 bits \nCompression mode : Lossy \nStream size : 127 MiB (15%) \nTitle : Mx- \nLanguage : English \nDefault : No \nForced : No\n\n[IMG]http://i.imgur.com/ctjKCA8.jpg[/IMG]\n[IMG]http://i.imgur.com/wM8VZTd.jpg[/IMG]\n\n[IMG]http://i.imgur.com/8nFdJDe.jpg[/IMG]\n\n[IMG]http://i.imgur.com/9ixTAxO.jpg[/IMG]\n\n[IMG]http://i.imgur.com/Jhu4pNU.jpg[/IMG]\n\n[IMG]http://i.imgur.com/qMoim72.jpg[/IMG]\n\n[IMG]http://i.imgur.com/vGWnpxC.jpg[/IMG]\n\n[IMG]http://i.imgur.com/QnyY38H.jpg[/IMG]\n\n[IMG]http://i.imgur.com/eJm7sgf.jpg[/IMG]\n[IMG]http://i.imgur.com/vLSasmQ.png[/IMG]\n\n[b][color=red]\n::::Thanks Team HDRR::::\nBoniin,Invincible,Tariq Qureshi,~HI-MAN\nTaha Rizvi,TBI,Mx-,Sumo Man[/color]\n\n[color=maroon]For More Join Us On Facebook[/color]\n[/center][/b]\n\nGroup HD Movie Releases[/color][/center][/b][/url]\nDESI ROCKER RELEAESEES[/color][/center][/b][/url]\nMovie Zone[/color][/center][/b][/url]\nAudio Zone[/color][/center][/b][/url]\n\n[center][color=maroon][b]:::DON'T FORGET TO SAY THANKS:::[/b][/color][/center]\n[center][img]http://sphotos-f.ak.fbcdn.net/hphotos-ak-ash3/521853_133463873505680_1907053731_n.jpg[/img]\n[IMG]http://i.imgur.com/FtKQVmO.gif[/IMG][/center]","torrent":{"xt":"urn:btih:2fabb77a0f692a67fb69b901e4a5de49ebef8e48","amp;dn":"I%2C+Frankenstein+%282014%29+720p+Blu-Ray+x264+%5BDual+Audio%5D+%5BHindi+2.0","amp;tr":["udp%3A%2F%2Ftracker.openbittorrent.com%3A80","udp%3A%2F%2Fopen.demonii.com%3A1337","udp%3A%2F%2Ftracker.coppersurfer.tk%3A6969","udp%3A%2F%2Fexodus.desync.com%3A6969"],"infoHash":"2fabb77a0f692a67fb69b901e4a5de49ebef8e48","infoHashBuffer":{"type":"Buffer","data":[47,171,183,122,15,105,42,103,251,105,185,1,228,165,222,73,235,239,142,72]},"announce":[],"urlList":[]}}